<svg width="100" height="22" viewBox="0 0 100 22" fill="none" xmlns="http://www.w3.org/2000/svg">
<path d="M9.152 21.992C7.06133 21.992 5.36533 21.7147 4.064 21.16C2.76267 20.584 1.78133 19.7947 1.12 18.792C0.48 17.7893 0.106667 16.6587 0 15.4H2.496C2.56 16.424 2.90133 17.256 3.52 17.896C4.13867 18.5147 4.94933 18.9733 5.952 19.272C6.976 19.5707 8.096 19.72 9.312 19.72C11.104 19.72 12.5227 19.4107 13.568 18.792C14.6133 18.152 15.136 17.2133 15.136 15.976C15.136 15.2293 14.8693 14.632 14.336 14.184C13.824 13.7147 13.1307 13.3307 12.256 13.032C11.4027 12.7333 10.464 12.4667 9.44 12.232C8.416 11.976 7.38133 11.7093 6.336 11.432C5.312 11.1547 4.36267 10.8027 3.488 10.376C2.63467 9.94933 1.94133 9.40533 1.408 8.744C0.896 8.06133 0.64 7.19733 0.64 6.152C0.64 4.424 1.30133 3.016 2.624 1.928C3.968 0.839996 5.96267 0.295996 8.608 0.295996C10.4853 0.295996 12.032 0.583996 13.248 1.16C14.464 1.71466 15.3707 2.45066 15.968 3.368C16.5867 4.28533 16.928 5.27733 16.992 6.344H14.528C14.4 5.27733 13.8667 4.38133 12.928 3.656C11.9893 2.90933 10.5493 2.536 8.608 2.536C7.41333 2.536 6.44267 2.65333 5.696 2.88799C4.94933 3.12266 4.37333 3.432 3.968 3.816C3.584 4.17866 3.31733 4.56266 3.168 4.96799C3.04 5.37333 2.976 5.75733 2.976 6.12C2.976 6.824 3.232 7.4 3.744 7.848C4.27733 8.27466 4.97067 8.63733 5.824 8.936C6.69867 9.21333 7.65867 9.46933 8.704 9.704C9.74933 9.93866 10.784 10.2053 11.808 10.504C12.8533 10.7813 13.8027 11.144 14.656 11.592C15.5307 12.0187 16.224 12.5733 16.736 13.256C17.2693 13.9387 17.536 14.8133 17.536 15.88C17.536 17.8427 16.7893 19.3573 15.296 20.424C13.8027 21.4693 11.7547 21.992 9.152 21.992Z" fill="#4A423B"/>
<path d="M27.4955 21.992C25.9382 21.992 24.5728 21.6293 23.3995 20.904C22.2475 20.1573 21.3515 19.1547 20.7115 17.896C20.0715 16.6373 19.7515 15.2507 19.7515 13.736C19.7515 12.2 20.0715 10.8133 20.7115 9.576C21.3515 8.31733 22.2475 7.32533 23.3995 6.6C24.5728 5.85333 25.9382 5.48 27.4955 5.48C28.8182 5.48 29.9488 5.736 30.8875 6.248C31.8475 6.76 32.6262 7.45333 33.2235 8.328V5.736H35.6235V21.736H33.2235V19.176C32.6262 20.0293 31.8475 20.712 30.8875 21.224C29.9488 21.736 28.8182 21.992 27.4955 21.992ZM27.8155 19.816C29.0102 19.816 30.0128 19.5387 30.8235 18.984C31.6555 18.4293 32.2848 17.6933 32.7115 16.776C33.1382 15.8373 33.3515 14.824 33.3515 13.736C33.3515 12.6267 33.1382 11.6133 32.7115 10.696C32.2848 9.77866 31.6555 9.04266 30.8235 8.488C30.0128 7.93333 29.0102 7.656 27.8155 7.656C26.6422 7.656 25.6288 7.93333 24.7755 8.488C23.9222 9.04266 23.2715 9.77866 22.8235 10.696C22.3755 11.6133 22.1515 12.6267 22.1515 13.736C22.1515 14.824 22.3755 15.8373 22.8235 16.776C23.2715 17.6933 23.9222 18.4293 24.7755 18.984C25.6288 19.5387 26.6422 19.816 27.8155 19.816Z" fill="#4A423B"/>
<path d="M44.1268 21.736L37.8548 5.736H40.4788L45.5348 19.176L50.5588 5.736H53.1828L46.9428 21.736H44.1268Z" fill="#4A423B"/>
<path d="M61.8705 21.992C60.3132 21.992 58.9478 21.6293 57.7745 20.904C56.6225 20.1573 55.7265 19.1547 55.0865 17.896C54.4465 16.6373 54.1265 15.2507 54.1265 13.736C54.1265 12.2 54.4465 10.8133 55.0865 9.576C55.7265 8.31733 56.6225 7.32533 57.7745 6.6C58.9478 5.85333 60.3132 5.48 61.8705 5.48C63.1932 5.48 64.3238 5.736 65.2625 6.248C66.2225 6.76 67.0012 7.45333 67.5985 8.328V5.736H69.9985V21.736H67.5985V19.176C67.0012 20.0293 66.2225 20.712 65.2625 21.224C64.3238 21.736 63.1932 21.992 61.8705 21.992ZM62.1905 19.816C63.3852 19.816 64.3878 19.5387 65.1985 18.984C66.0305 18.4293 66.6598 17.6933 67.0865 16.776C67.5132 15.8373 67.7265 14.824 67.7265 13.736C67.7265 12.6267 67.5132 11.6133 67.0865 10.696C66.6598 9.77866 66.0305 9.04266 65.1985 8.488C64.3878 7.93333 63.3852 7.656 62.1905 7.656C61.0172 7.656 60.0038 7.93333 59.1505 8.488C58.2972 9.04266 57.6465 9.77866 57.1985 10.696C56.7505 11.6133 56.5265 12.6267 56.5265 13.736C56.5265 14.824 56.7505 15.8373 57.1985 16.776C57.6465 17.6933 58.2972 18.4293 59.1505 18.984C60.0038 19.5387 61.0172 19.816 62.1905 19.816Z" fill="#4A423B"/>
<path d="M74.1497 21.736V5.736H76.5498V8.232C77.1258 7.464 77.8298 6.81333 78.6618 6.28C79.4938 5.74666 80.5604 5.48 81.8617 5.48C82.9711 5.48 84.0058 5.74666 84.9658 6.28C85.9471 6.792 86.7364 7.57066 87.3337 8.616C87.9524 9.64 88.2617 10.9093 88.2617 12.424V21.736H85.8617V12.488C85.8617 11.0373 85.4457 9.87466 84.6137 9C83.7817 8.104 82.7044 7.656 81.3817 7.656C80.4857 7.656 79.6751 7.85866 78.9497 8.264C78.2244 8.66933 77.6378 9.24533 77.1898 9.992C76.7631 10.7173 76.5498 11.56 76.5498 12.52V21.736H74.1497Z" fill="#4A423B"/>
<path d="M93.6277 21.736V7.848H90.3637V5.736H93.6277V0.00799561H96.0277V5.736H99.7077V7.848H96.0277V21.736H93.6277Z" fill="#4A423B"/>
</svg>
